<?xml version="1.0" encoding="UTF-8" standalone="no"?>
<!-- Created with Inkscape (http://www.inkscape.org/) -->

<svg
   xmlns:dc="http://purl.org/dc/elements/1.1/"
   xmlns:cc="http://creativecommons.org/ns#"
   xmlns:rdf="http://www.w3.org/1999/02/22-rdf-syntax-ns#"
   xmlns:svg="http://www.w3.org/2000/svg"
   xmlns="http://www.w3.org/2000/svg"
   xmlns:sodipodi="http://sodipodi.sourceforge.net/DTD/sodipodi-0.dtd"
   xmlns:inkscape="http://www.inkscape.org/namespaces/inkscape"
   width="300"
   height="91.157997"
   viewBox="0 0 300 91.158"
   id="svg2"
   version="1.1"
   inkscape:version="0.91 r13725"
   sodipodi:docname="RCTI 2015.svg">
  <defs
     id="defs4">
    <pattern
       y="0"
       x="0"
       height="6"
       width="6"
       patternUnits="userSpaceOnUse"
       id="EMFhbasepattern" />
    <pattern
       y="0"
       x="0"
       height="6"
       width="6"
       patternUnits="userSpaceOnUse"
       id="EMFhbasepattern-2" />
    <clipPath
       id="clipEmfPath1"
       clipPathUnits="userSpaceOnUse">
      <path
         inkscape:connector-curvature="0"
         id="path4360"
         d="m 1117.6,0.0961475 c 37.52,0 75.01,0 112.5,0 0,124.5808525 0,249.1608525 0,373.7418525 -37.49,0 -74.98,0 -112.5,0 0,-124.581 0,-249.161 0,-373.7418525 z" />
    </clipPath>
    <clipPath
       id="clipEmfPath2"
       clipPathUnits="userSpaceOnUse">
      <path
         inkscape:connector-curvature="0"
         id="path4363"
         d="m 750.115,0.0961475 c 115.832,0 231.664,0 347.495,0 0,35.0072525 0,70.0145525 0,104.9868525 -39.15,0 -78.34,0 -117.496,0 0,89.608 0,179.181 0,268.755 -37.489,0 -75.013,0 -112.502,0 0,-89.574 0,-179.147 0,-268.755 -39.189,0 -78.343,0 -117.497,0 0,-34.9723 0,-69.9796 0,-104.9868525 z" />
    </clipPath>
    <clipPath
       id="clipEmfPath3"
       clipPathUnits="userSpaceOnUse">
      <path
         inkscape:connector-curvature="0"
         id="path4366"
         d="m 108.735,0.0961475 c 0.921,1.2047025 1.807,2.4094025 3.295,4.7125125 1.524,2.26768 3.615,5.59834 5.918,9.95654 2.303,4.3582 4.783,9.7085 7.086,16.795 2.304,7.0865 4.43,15.8383 5.457,22.7476 1.028,6.9093 0.957,11.9407 0.886,16.9722 8.185,-3.1181 16.406,-6.2362 25.618,-8.7873 9.248,-2.5511 19.489,-4.5353 29.197,-5.8818 9.674,-1.3818 18.78,-2.0905 26.753,-2.4803 7.937,-0.3543 14.705,-0.3188 24.094,0.2835 9.39,0.6378 21.402,1.8779 31.04,3.685 9.638,1.807 16.937,4.2164 22.996,6.8384 6.06,2.6575 10.878,5.5275 14.386,8.5038 3.544,2.9764 5.811,6.059 8.079,9.1416 l -61.619,0 c 1.347,2.2677 2.658,4.5354 4.678,6.9802 1.984,2.4803 4.641,5.1377 8.114,7.2637 3.472,2.1613 7.76,3.7912 11.587,4.9962 3.791,1.24 7.086,2.019 10.842,2.48 3.721,0.461 7.902,0.638 12.048,0.78 l 62.15,0 c 6.378,2.409 12.756,4.783 18.354,8.61 5.599,3.862 10.453,9.177 14.138,14.81 3.65,5.634 6.166,11.622 7.3,17.256 1.133,5.598 0.921,10.878 0.708,16.157 -3.756,-3.401 -7.476,-6.803 -12.685,-9.283 -5.209,-2.48 -11.87,-4.039 -19.63,-4.784 -7.76,-0.779 -16.583,-0.744 -25.548,-0.141 -8.929,0.602 -17.929,1.771 -28.346,3.862 -10.418,2.055 -22.182,5.031 -36.745,9.708 -14.598,4.713 -31.996,11.091 -46.488,17.787 -14.493,6.697 -26.15,13.642 -34.264,18.673 -8.115,5.067 -12.756,8.185 -16.973,11.091 -4.217,2.941 -8.008,5.704 -11.764,8.468 -3.72,2.799 -7.406,5.598 -11.091,8.398 0.107,0.389 0.248,0.744 0.355,1.098 2.126,6.165 4.252,12.331 7.76,20.374 3.543,8.007 8.504,17.893 17.787,31.322 9.284,13.393 22.89,30.366 37.949,44.857 15.095,14.492 31.642,26.504 43.654,34.512 11.977,8.007 19.418,11.976 26.859,15.98 50.918,0 101.836,0 152.789,0 -7.76,-3.65 -15.52,-7.335 -26.646,-13.004 -11.091,-5.669 -25.512,-13.323 -40.607,-22.889 -15.059,-9.567 -30.756,-20.976 -44.044,-32.669 -13.287,-11.693 -24.13,-23.669 -31.358,-32.811 -7.264,-9.177 -10.878,-15.519 -14.528,-21.897 8.54,-0.142 17.044,-0.319 24.556,-1.027 7.476,-0.744 13.96,-2.091 21.082,-4.359 7.087,-2.267 14.847,-5.456 21.083,-8.61 6.237,-3.153 10.949,-6.271 14.351,-8.681 3.401,-2.409 5.527,-4.11 7.653,-5.846 2.126,7.831 4.288,15.661 7.123,23.421 2.87,7.76 6.484,15.484 10.523,23.066 4.004,7.583 8.504,14.988 12.012,20.41 3.544,5.385 6.095,8.787 11.233,14.633 5.102,5.811 12.72,14.102 20.764,21.012 8.043,6.944 16.476,12.543 25.441,17.716 8.929,5.173 18.425,9.956 27.992,13.748 9.603,3.755 19.311,6.555 28.311,8.751 8.965,2.197 17.257,3.827 24.485,5.032 7.264,1.205 13.465,1.984 19.453,2.586 5.953,0.567 11.693,0.993 16.583,1.205 4.854,0.213 8.858,0.213 12.897,0.213 45.426,0 90.852,0 136.277,0 0,-33.342 0,-66.649 0,-99.991 -37.028,0 -74.091,0 -111.154,-0.035 -6.095,-0.036 -12.189,-0.106 -18.319,-0.496 -6.166,-0.425 -12.402,-1.134 -19.489,-2.658 -7.086,-1.488 -15.023,-3.791 -22.181,-6.484 -7.193,-2.657 -13.606,-5.704 -19.453,-9.07 -5.846,-3.402 -11.126,-7.158 -16.193,-11.729 -5.032,-4.606 -9.85,-10.027 -13.536,-16.263 -3.72,-6.236 -6.307,-13.252 -7.866,-19.169 -1.559,-5.953 -2.055,-10.772 -2.303,-14.917 -0.213,-4.146 -0.177,-7.583 0.177,-11.693 0.319,-4.145 0.957,-8.893 2.197,-13.783 1.24,-4.89 3.083,-9.921 5.457,-14.917 2.409,-4.996 5.315,-9.957 8.858,-14.598 3.508,-4.642 7.654,-8.894 12.827,-13.075 5.209,-4.145 11.516,-8.185 17.54,-11.09 6.023,-2.87 11.799,-4.606 16.512,-5.776 4.712,-1.134 8.362,-1.7 12.012,-2.09 3.685,-0.425 7.334,-0.673 9.815,-0.78 2.196,-0.106 3.472,-0.141 20.693,-0.141 l 0.886,0 0.956,0 0.992,0 0.39,0 0.638,0 1.027,0 1.063,0 1.134,0 1.134,0 1.17,0 0.566,0 0.638,0 1.24,0 1.276,0 1.276,0 1.346,0 0.957,0 0.39,0 1.381,0 1.418,0 1.453,0 1.488,0 0.602,0 0.886,0 1.524,0 1.559,0 1.559,0 1.205,0 0.425,0 1.63,0 1.63,0 1.665,0 1.382,0 0.319,0 1.736,0 1.736,0 1.772,0 1.169,0 0.603,0 1.807,0 1.807,0 1.842,0 0.674,0 1.204,0 1.878,0 1.878,0 1.772,0 0.142,0 1.948,0 1.949,0 1.949,0 0.744,0 1.24,0 1.985,0 2.019,0 1.489,0 0.531,0 2.02,0 2.055,0 2.055,0 0.071,0 1.984,0 2.091,0 2.09,0 0.567,0 1.524,0 2.126,0 2.091,0 0.992,0 1.134,0 2.126,0 2.161,0 1.311,0 0.85,0 2.126,0 2.162,0 1.594,0 0.567,0 2.197,0 2.162,0 1.807,0 0.354,0 2.197,0 2.161,0 2.02,0 0.177,0 2.197,0 2.197,0 2.161,0 0,-0.319 0,-0.355 0,-0.354 0,-0.354 0,-0.248 0,-0.107 0,-0.354 0,-0.354 0,-0.355 0,-0.354 0,-0.106 0,-0.248 0,-0.355 0,-0.354 0,-0.354 0,-0.319 0,-0.3545 0,-0.3543 0,-0.3543 0,-0.3544 0,-0.248 0,-0.1063 0,-0.3543 0,-0.3543 0,-0.3544 0,-0.3543 0,-0.1063 0,-0.248 0,-0.3543 0,-0.3544 0,-0.3188 0,-0.3544 0,-0.3543 0,-0.3543 0,-0.3543 0,-0.3544 0,-0.248 0,-0.1063 0,-0.3543 0,-0.3543 0,-0.3544 0,-0.3543 0,-0.1063 0,-0.248 0,-0.3543 0,-0.3189 0,-0.3544 0,-0.3543 0,-0.3543 0,-0.3543 0,-0.3544 0,-0.3543 0,-0.248 0,-0.1063 0,-0.3543 0,-0.3544 0,-0.3543 0,-0.3543 0,-0.1063 0,-0.248 0,-0.3189 0,-0.3543 0,-0.3544 0,-0.3543 0,0 0,-0.3543 0,-0.3543 0,-0.3544 0,-0.3543 0,-0.2126 0,-0.1417 0,-0.3543 0,-0.3544 0,-0.3543 0,-82.4867525 c -55.914,0 -111.827,0 -167.777,0 -3.508,0 -7.016,0 -13.181,0.4606215 -6.165,0.460621 -14.988,1.346431 -23.67,3.118061 -8.681,1.77162 -17.256,4.39362 -24.874,7.08647 -7.583,2.6575 -14.209,5.4212 -21.579,9.1416 -7.334,3.7204 -15.449,8.4329 -23.74,14.6336 -8.292,6.1652 -16.725,13.8541 -22.855,20.1611 -6.13,6.3424 -9.886,11.3384 -12.614,15.1651 -2.693,3.8267 -4.323,6.4487 -5.953,9.1061 -1.771,-3.8621 -3.508,-7.6888 -5.953,-12.3305 -2.445,-4.6771 -5.563,-10.1337 -10.63,-16.9367 C 392.202,42.8986 385.151,34.7491 375.62,27.2374 366.052,19.7257 353.934,12.8164 339.159,8.52907 324.347,4.24175 306.843,2.57642 289.729,1.61974 272.615,0.627634 255.89,0.379607 239.165,0.0961475 c -43.476,0 -86.953,0 -130.43,0 z" />
    </clipPath>
    <pattern
       y="0"
       x="0"
       height="6"
       width="6"
       patternUnits="userSpaceOnUse"
       id="EMFhbasepattern-9" />
    <pattern
       y="0"
       x="0"
       height="6"
       width="6"
       patternUnits="userSpaceOnUse"
       id="EMFhbasepattern-7" />
  </defs>
  <sodipodi:namedview
     id="base"
     pagecolor="#ffffff"
     bordercolor="#666666"
     borderopacity="1.0"
     inkscape:pageopacity="0.0"
     inkscape:pageshadow="2"
     inkscape:zoom="2.99"
     inkscape:cx="150"
     inkscape:cy="45.578947"
     inkscape:document-units="px"
     inkscape:current-layer="layer1"
     showgrid="false"
     units="px"
     inkscape:window-width="1366"
     inkscape:window-height="706"
     inkscape:window-x="-8"
     inkscape:window-y="-8"
     inkscape:window-maximized="1" />
  <metadata
     id="metadata7">
    <rdf:RDF>
      <cc:Work
         rdf:about="">
        <dc:format>image/svg+xml</dc:format>
        <dc:type
           rdf:resource="http://purl.org/dc/dcmitype/StillImage" />
        <dc:title></dc:title>
      </cc:Work>
    </rdf:RDF>
  </metadata>
  <g
     inkscape:label="Layer 1"
     inkscape:groupmode="layer"
     id="layer1"
     transform="translate(0,-961.20416)">
    <path
       inkscape:connector-curvature="0"
       id="path4371"
       d=""
       clip-path="url(#clipEmfPath1)"
       style="fill:#ffffff;fill-opacity:1;fill-rule:evenodd;stroke:#000000;stroke-width:1px;stroke-linecap:butt;stroke-linejoin:miter;stroke-miterlimit:4;stroke-dasharray:none;stroke-opacity:1"
       transform="matrix(0.86421854,0,0,0.86421854,-0.02345489,961.18244)" />
    <path
       inkscape:connector-curvature="0"
       id="path4377"
       d=""
       clip-path="url(#clipEmfPath2)"
       style="fill:#ffffff;fill-opacity:1;fill-rule:evenodd;stroke:#000000;stroke-width:1px;stroke-linecap:butt;stroke-linejoin:miter;stroke-miterlimit:4;stroke-dasharray:none;stroke-opacity:1"
       transform="matrix(0.86421854,0,0,0.86421854,-0.02345489,961.18244)" />
    <path
       inkscape:connector-curvature="0"
       id="path4385"
       d=""
       clip-path="url(#clipEmfPath3)"
       style="fill:#ffffff;fill-opacity:1;fill-rule:evenodd;stroke:#000000;stroke-width:1px;stroke-linecap:butt;stroke-linejoin:miter;stroke-miterlimit:4;stroke-dasharray:none;stroke-opacity:1"
       transform="matrix(0.86421854,0,0,0.86421854,-0.02345489,961.18244)" />
    <path
       inkscape:connector-curvature="0"
       id="path4447"
       d="m 272.56106,961.20586 c 9.15118,0 18.29505,0 27.43894,0 0,30.38548 0,60.77074 0,91.15634 -9.14389,0 -18.28776,0 -27.43894,0 0,-30.3856 0,-60.77086 0,-91.15634 z"
       style="fill:#265bab;fill-opacity:1;fill-rule:evenodd;stroke:none" />
    <path
       inkscape:connector-curvature="0"
       id="path4449"
       d="m 182.93084,961.20586 c 28.25163,0 56.50324,0 84.75461,0 0,8.53833 0,17.07667 0,25.60647 -9.54875,0 -19.10725,0 -28.65746,0 0,21.85557 0,43.70257 0,65.54987 -9.14364,0 -18.2958,0 -27.43943,0 0,-21.8473 0,-43.6943 0,-65.54987 -9.55826,0 -19.10799,0 -28.65772,0 0,-8.5298 0,-17.06814 0,-25.60647 z"
       style="fill:#265bab;fill-opacity:1;fill-rule:evenodd;stroke:none" />
    <path
       inkscape:connector-curvature="0"
       id="path4451"
       d="m 0,961.20586 c 0,30.38548 0,60.77074 0,91.15634 18.088264,0 36.176428,0 54.264908,0 -0.84707,-0.4754 -1.693897,-0.9507 -2.826089,-1.7025 -1.132192,-0.7607 -2.540967,-1.7975 -4.675595,-3.5087 -2.143164,-1.7198 -5.003886,-4.1222 -8.201437,-7.7262 -3.189015,-3.6121 -6.723638,-8.4257 -9.454606,-14.2245 -2.730966,-5.7902 -4.675595,-12.5571 -5.859469,-19.7559 -1.19263,-7.19873 -1.633385,-14.82111 -1.953165,-19.90258 -0.319755,-5.07286 -0.527169,-7.60498 -0.846948,-9.8087 -0.311121,-2.21236 -0.734583,-4.09633 -1.382752,-5.97164 -0.648168,-1.87533 -1.512385,-3.72472 -2.58404,-5.04696 -1.062997,-1.33087 -2.342042,-2.11729 -3.387771,-2.61853 -1.054362,-0.49259 -1.892652,-0.69136 -2.497602,-0.78643 -0.604973,-0.1037 -0.98524,-0.1037 -2.713674,-0.1037 -1.728458,0 -4.805107,0 -7.88176,0 z"
       style="fill:#265bab;fill-opacity:1;fill-rule:evenodd;stroke:none" />
    <path
       inkscape:connector-curvature="0"
       id="path4453"
       d="m 26.49719,961.20586 c 0.224633,0.29383 0.44073,0.58766 0.803656,1.14939 0.371706,0.55309 0.881705,1.36545 1.44341,2.42842 0.561705,1.06297 1.166582,2.36792 1.728287,4.09633 0.56195,1.72841 1.080485,3.86298 1.330972,5.54818 0.25073,1.68519 0.233414,2.91235 0.216097,4.13954 1.996335,-0.76051 4.001451,-1.52101 6.248273,-2.14323 2.255603,-0.62222 4.7534,-1.10617 7.121197,-1.43459 2.359505,-0.33702 4.580473,-0.50987 6.525102,-0.60494 1.935848,-0.0864 3.586574,-0.0778 5.876567,0.0691 2.290237,0.15556 5.219983,0.45802 7.570707,0.89878 2.350726,0.44073 4.130965,1.02839 5.608761,1.6679 1.478047,0.64816 2.653168,1.34816 3.508766,2.07409 0.8644,0.72594 1.41732,1.4778 1.97049,2.22965 3.49145,1.83212 6.99169,3.66424 10.48314,5.48781 0.79511,0.1122 1.58146,0.21585 2.62731,0.56171 1.0456,0.3456 2.35072,0.92463 3.5173,1.80609 1.16682,0.89024 2.20389,2.07414 3.02487,3.39633 0.82097,1.32219 1.43463,2.78263 1.71121,4.15683 0.27634,1.36538 0.22464,2.65315 0.17269,3.94075 -0.9161,-0.82957 -1.82342,-1.6593 -3.0939,-2.26417 -1.27048,-0.60487 -2.89511,-0.98512 -4.78778,-1.16687 -1.89269,-0.18995 -4.04462,-0.1814 -6.23121,-0.0346 -2.1778,0.14683 -4.37291,0.43203 -6.91364,0.942 -2.54096,0.50125 -5.410219,1.22702 -8.962158,2.36774 -3.560476,1.1495 -7.803881,2.7051 -11.338504,4.3383 -3.534867,1.6334 -6.378029,3.3274 -8.357047,4.5544 -1.979262,1.2358 -3.11121,1.9963 -4.139743,2.7051 -1.028533,0.7174 -1.953165,1.3912 -2.869259,2.0654 -0.907315,0.6826 -1.806336,1.3653 -2.705114,2.0483 0.0261,0.095 0.06049,0.1814 0.08658,0.2678 0.518535,1.5036 1.03707,3.0075 1.892677,4.9692 0.864144,1.9529 2.07414,4.3642 4.338279,7.6395 2.264383,3.2666 5.58291,7.4063 9.255825,10.9407 3.681696,3.5347 7.717537,6.4644 10.647283,8.4175 2.921214,1.953 4.736082,2.921 6.550958,3.8976 12.418988,0 24.837968,0 37.265488,0 -1.89268,-0.8903 -3.78535,-1.789 -6.499,-3.1717 -2.70511,-1.3827 -6.22242,-3.2495 -9.90411,-5.5826 -3.67292,-2.3335 -7.50145,-5.1161 -10.74241,-7.9681 -3.24072,-2.852 -5.88535,-5.7729 -7.648268,-8.0027 -1.7717,-2.2382 -2.653169,-3.7851 -3.543409,-5.3407 2.082923,-0.035 4.157067,-0.078 5.989247,-0.2504 1.82342,-0.1815 3.40487,-0.51 5.14194,-1.0632 1.72853,-0.5529 3.62121,-1.3307 5.14218,-2.1001 1.52121,-0.7689 2.67048,-1.5294 3.50023,-2.1172 0.82951,-0.5876 1.34805,-1.0025 1.86658,-1.4259 0.51853,1.91 1.04585,3.8198 1.73732,5.7124 0.7,1.8927 1.58145,3.7767 2.56657,5.6259 0.97658,1.8495 2.07414,3.6556 2.92975,4.978 0.86438,1.3134 1.48658,2.1432 2.73975,3.569 1.24439,1.4174 3.10243,3.4395 5.06437,5.1249 1.9617,1.6937 4.01852,3.0592 6.20511,4.321 2.17779,1.2616 4.49388,2.4282 6.82729,3.3531 2.34219,0.9158 4.70998,1.5988 6.9051,2.1344 2.18658,0.5358 4.20901,0.9334 5.97194,1.2273 1.7717,0.2939 3.28413,0.4839 4.74461,0.6308 1.45195,0.1382 2.85194,0.2421 4.04463,0.2938 1.18389,0.052 2.16047,0.052 3.1456,0.052 11.07947,0 22.15895,0 33.23818,0 0,-8.1322 0,-16.2558 0,-24.3879 -9.03119,0 -18.07091,0 -27.11065,-0.01 -1.48658,-0.01 -2.97291,-0.026 -4.46803,-0.121 -1.5039,-0.1037 -3.02486,-0.2766 -4.7534,-0.6483 -1.72829,-0.3629 -3.66414,-0.9246 -5.40998,-1.5815 -1.75439,-0.648 -3.31853,-1.3912 -4.74462,-2.2122 -1.42585,-0.8297 -2.71365,-1.7458 -3.9495,-2.8606 -1.22732,-1.1235 -2.40244,-2.4457 -3.30146,-3.9666 -0.90731,-1.521 -1.53828,-3.2322 -1.91853,-4.6754 -0.38024,-1.4519 -0.50121,-2.6273 -0.56171,-3.6382 -0.0519,-1.0113 -0.0431,-1.8495 0.0432,-2.852 0.0778,-1.011 0.2334,-2.1691 0.53585,-3.3617 0.30244,-1.1927 0.75194,-2.41978 1.33097,-3.63825 0.58756,-1.21854 1.29634,-2.42854 2.16048,-3.56049 0.85561,-1.13221 1.86682,-2.16928 3.12853,-3.18903 1.27048,-1.01098 2.80877,-1.99634 4.27803,-2.70488 1.46902,-0.69999 2.87779,-1.12341 4.02731,-1.40877 1.14926,-0.27659 2.0395,-0.41464 2.92974,-0.50976 0.89878,-0.10365 1.78878,-0.16414 2.3939,-0.19024 0.60487,-0.0344 0.92463,-0.0344 6.77534,-0.0344 5.85096,0 17.23287,0 28.61454,0 0,-8.5298 0,-17.06814 0,-25.60646 -13.63751,0 -27.27479,0 -40.92108,0 -0.85561,0 -1.71122,0 -3.21488,0.11234 -1.50365,0.11234 -3.65559,0.3284 -5.77315,0.7605 -2.11731,0.4321 -4.20876,1.07161 -6.06681,1.7284 -1.8495,0.64818 -3.4656,1.32225 -5.26315,2.22965 -1.78877,0.90741 -3.76804,2.05681 -5.79023,3.56916 -2.02243,1.50371 -4.07926,3.37905 -5.57437,4.91733 -1.49512,1.54692 -2.41121,2.76546 -3.07658,3.69879 -0.65682,0.93334 -1.05439,1.57286 -1.45194,2.22099 -0.43195,-0.94197 -0.85561,-1.87531 -1.45195,-3.00742 -0.59634,-1.14076 -1.35682,-2.47163 -2.59267,-4.13089 -1.23585,-1.65927 -2.95561,-3.64694 -5.28023,-5.47906 -2.33369,-1.83209 -5.28929,-3.51728 -8.89293,-4.56297 -3.61268,-1.04568 -7.88193,-1.45186 -12.056067,-1.68519 -4.174132,-0.24198 -8.253387,-0.30248 -12.332642,-0.37162 -10.60387,0 -21.207983,0 -31.812096,0 z"
       style="fill:#265bab;fill-opacity:1;fill-rule:evenodd;stroke:none" />
    <path
       inkscape:connector-curvature="0"
       id="path4455"
       d="m 61.420495,981.32452 c 38.881595,0 77.754635,0 116.627435,0 0,1.83212 0,3.66423 0,5.48781 -35.02695,0 -70.0627,0 -105.098443,0 -1.011222,-0.0346 -2.030974,-0.0778 -2.938533,-0.19025 -0.916089,-0.11243 -1.719752,-0.30243 -2.644379,-0.60487 -0.933408,-0.2939 -1.97926,-0.69144 -2.82609,-1.21858 -0.84707,-0.51854 -1.495116,-1.16668 -1.979017,-1.77163 -0.492682,-0.59629 -0.812437,-1.14938 -1.140973,-1.70248 z"
       style="fill:#ef232e;fill-opacity:1;fill-rule:evenodd;stroke:none" />
    <path
       inkscape:connector-curvature="0"
       id="path4457"
       d="m 182.93084,981.32452 c 0,1.83212 0,3.66423 0,5.48781 28.25163,0 56.50324,0 84.75461,0 0,-1.82358 0,-3.65569 0,-5.48781 -28.25137,0 -56.50298,0 -84.75461,0 z"
       style="fill:#ef232e;fill-opacity:1;fill-rule:evenodd;stroke:none" />
    <path
       inkscape:connector-curvature="0"
       id="path4459"
       d="m 272.56106,981.32452 c 0,1.83212 0,3.66423 0,5.48781 9.15118,0 18.29505,0 27.43894,0 0,-1.82358 0,-3.65569 0,-5.48781 -9.14389,0 -18.28776,0 -27.43894,0 z"
       style="fill:#ef232e;fill-opacity:1;fill-rule:evenodd;stroke:none" />
  </g>
</svg>
